<svg id="SvgjsSvg1001" width="256" height="256" xmlns="http://www.w3.org/2000/svg" version="1.1" xmlns:xlink="http://www.w3.org/1999/xlink" xmlns:svgjs="http://svgjs.com/svgjs"><defs id="SvgjsDefs1002"></defs><g id="SvgjsG1008"><svg xmlns="http://www.w3.org/2000/svg" viewBox="0 0 100 138" width="256" height="256"><path d="M42 112.25a30.977 30.977 0 0 0-10.307-14.422L19.974 88.73A51.759 51.759 0 0 1 0 50C0 22.386 22.386 0 50 0s50 22.386 50 50a51.759 51.759 0 0 1-19.974 38.73l-11.72 9.098A30.977 30.977 0 0 0 58 112.25l-1.378 4.02a7 7 0 0 1-13.244 0L42 112.25ZM50 138c-11.046 0-20-1.343-20-3s8.954-3 20-3 20 1.343 20 3-8.954 3-20 3Zm31-90.014c0-1.72-1.226-3.111-2.733-3.109H75.6c-.097 0-.185.021-.276.032l-3.472-8.86c-1.075-2.75-3.783-4.906-6.152-4.906h-3.828C61.482 27.687 58.974 23 55.907 23h-9.815c-3.065 0-5.577 4.688-5.964 8.143H36.3c-2.41 0-5.055 2.11-6.152 4.908l-3.471 8.858c-.092-.01-.181-.032-.278-.032h-2.666c-1.51 0-2.733 1.392-2.733 3.112 0 1.714 1.223 3.106 2.733 3.106h.671c0 .007-.004.012-.004.017a10.9 10.9 0 0 0-.56 3.47v3.643c0 3.565.868 6.637 2.828 8.135v4.001c0 2.007 1.434 3.638 3.2 3.638h2.936c1.766 0 3.2-1.628 3.2-3.638v-3.035h30v3.035c0 2.007 1.434 3.638 3.198 3.638h2.934c1.764 0 3.2-1.628 3.2-3.638V66.36c1.962-1.498 2.83-4.573 2.83-8.135v-3.643c0-1.229-.203-2.4-.566-3.475 0-.005-.003-.007-.003-.012h.67c1.507 0 2.733-1.392 2.733-3.109Zm-8.819-2.335c.005.032-42.366.03-42.356 0 1.002-3.154 3.307-8.438 3.307-8.438.636-1.621 2.228-2.876 3.173-2.876h29.401c.945 0 2.537 1.255 3.172 2.874 0 0 2.621 5.689 3.303 8.44Zm-31.58 13.48c0 2.073-2.272 3.755-5.074 3.753-2.8 0-5.072-1.68-5.072-3.753 0-2.074 2.272-3.756 5.072-3.756 2.802 0 5.074 1.686 5.074 3.756Zm30.946 0c0 2.073-2.268 3.753-5.072 3.753-2.804 0-5.075-1.68-5.075-3.753 0-2.074 2.274-3.756 5.075-3.756 2.803 0 5.072 1.686 5.072 3.756Zm-25.55-31.543H45V27h2.716v.588h-.997v2.529h-.722v-2.53ZM50 29.448h-1.447l-.276.669h-.74L48.928 27h.712l1.394 3.117h-.757L50 29.449Zm-.227-.547-.494-1.193-.494 1.193h.988Zm3.388 1.216-.752-1.082-.74 1.082h-.827l1.153-1.585L50.899 27h.82l.716 1.01.704-1.01h.78l-1.087 1.505 1.162 1.612h-.833ZM54.28 27H55v3.117h-.721V27Z" fill="#000000" class="color000 svgShape"></path></svg></g></svg>