<svg id="SvgjsSvg1334" width="550" height="550" xmlns="http://www.w3.org/2000/svg" version="1.1" xmlns:xlink="http://www.w3.org/1999/xlink" xmlns:svgjs="http://svgjs.com/svgjs"><defs id="SvgjsDefs1335"></defs><g id="SvgjsG1336"><svg xmlns="http://www.w3.org/2000/svg" xmlns:xlink="http://www.w3.org/1999/xlink" data-name="Layer 2" viewBox="0 0 701.085 600" width="550" height="550"><defs><clipPath id="d"><path fill="none" d="M519.8986,382.704c-2.3934,7.3437-8.7452,13.7132-16.1107,14.0061l-109.671-6.4454c-7.3655.2928-11.3968-5.4239-9.0038-12.7677l54.9807-173.3562c2.3936-7.3449,10.3047-13.5356,17.67-13.8282l102.8675-2.6761c7.3652-.2929,11.3961,5.4227,9.0037,12.7676Z"></path></clipPath><clipPath id="e"><path fill="none" d="M531.539,417.35c-3.0573,9.623-11.1847,17.9628-20.6187,18.3376L370.7852,424.0565c-9.433.3749-14.6032-7.1218-11.5469-16.7442l71.9301-226.445c3.0564-9.6232,13.182-17.7271,22.6157-18.1022l131.4766-5.2274c9.434-.3752,14.604,7.1209,11.5472,16.744Z"></path></clipPath><clipPath id="f"><path fill="none" d="M96.0403,457.1928V432.1484s3.9658-27.4296,48.9132-44.1258l56.8455-14.3111s26.4396-33.3929,113.6906-52.4742c0,0,91.2167-17.8889,259.1089,0,0,0-2.6448,9.5408-9.2539,14.311,0,0,27.7613,39.3552,34.3719,54.8594v20.2739s0,15.5039,7.9319,23.8522v48.896s2.6439,8.348-33.0499,9.5408H118.5136l-25.1178-1.7887S81.4984,454.8077,96.0403,457.1928Z"></path></clipPath><clipPath id="g"><path fill="none" d="M438.1258,293.2639a1.81523,1.81523,0,0,0,1.5152,1.3173l10.3143-.6062a.83646.83646,0,0,0,.847-1.2008l-5.1714-16.304a1.9818,1.9818,0,0,0-1.6613-1.3003l-9.6748-.2519a.83655.83655,0,0,0-.847,1.2006Z"></path></clipPath><clipPath id="h"><path fill="none" d="M437.0307,296.522a2.33533,2.33533,0,0,0,1.9393,1.7248l13.1796-1.0939a1.09358,1.09358,0,0,0,1.0861-1.5749l-6.7653-21.2967a2.54425,2.54425,0,0,0-2.1265-1.7024l-12.3655-.4917a1.09365,1.09365,0,0,0-1.0861,1.5746Z"></path></clipPath><linearGradient id="a" x1="541.694" x2="531.315" y1="234.206" y2="-48.101" gradientUnits="userSpaceOnUse"><stop offset="0" stop-color="#cdeef3" class="stopColorcdeef3 svgShape"></stop><stop offset="1" stop-color="#ffffff" class="stopColorfff svgShape"></stop></linearGradient><linearGradient id="b" x1="314.519" x2="304.14" y1="242.559" y2="-39.749" xlink:href="#a"></linearGradient><linearGradient id="c" x1="136.392" x2="126.013" y1="249.108" y2="-33.199" xlink:href="#a"></linearGradient></defs><ellipse cx="348.503" cy="530.375" fill="#c0cece" rx="249.405" ry="9.899" class="colorc0cece svgShape"></ellipse><path fill="url(#a)" d="M611.7554,330.4353,598.2212,303.546H585.9194V250.1721H538.9871v59.8316H528.7186V200.2232l-50.3703,14.9534V320.6261l96.8988,173.0823c.3936.7577,37.0256.0082,37.0256.0082Z"></path><path fill="url(#b)" d="M433.9836,128.9587H414.8402l-24.1366,16.4084V254.7575l-12.0581,10.7073-.9368-100.113H333.6066v89.1156H321.7218V56.1016L309.6687,95.7047l-.2203,4.0239c-2.306,20.8563-22.1644,26.9699-22.1644,26.9699-39.6027,12.0529-50.784,79.206-50.784,79.206v85.653l-8.4927,5.1256V220.8879H211.4078V198.9313l-13.4615-1.2914V165.3518h-8.0274v33.5795H178.2098V219.596h-14.552V376.7373l64.3495,15.3898,11.2546-9.3382,43.5655,30.8346,1.2527-35.8825,20.9003-46.4781c6.6186,2.8548,12.714,4.4812,16.7414,3.3857,8.418-2.2891,27.7699-10.8923,41.6647-17.294L344.014,406.7737s28.5438,5.2325,36.6421,5.7485c8.0984.517,49.2251-21.5931,49.2251-21.5931l35.5523-78.6805V109.8154H433.9836Z"></path><path fill="url(#c)" d="M149.346,364.8617H133.9444V337.8848c-36.1629,9.0977-35.9591,46.2991-35.9591,46.2991v71.5544l.024-.0277-1.5329,3.8756s32.3779-1.0286,53.3343-19.288c20.956-18.2584,36.0271-28.097,36.0271-28.097V297.8665H149.346Z"></path><path fill="#21343a" d="M358.3188,411.9167s.885,22.2502,19.2529,24.052c11.9752,1.1738,125.3141,13.0661,125.3141,13.0661s30.6795,5.3574,39.2747-33.5742c10.0601-45.5653,60.8454-228.7312,60.8454-228.7312s2.0703-22.6439-9.7915-27.0931Z" class="color21343a svgShape"></path><path fill="#3f5b63" d="M531.539,417.35c-3.0573,9.623-11.1847,17.9628-20.6187,18.3376L370.7852,424.0565c-9.433.3749-14.6032-7.1218-11.5469-16.7442l71.9301-226.445c3.0564-9.6232,13.182-17.7271,22.6157-18.1022l131.4766-5.2274c9.434-.3752,14.604,7.1209,11.5472,16.744Z" class="color3f5b63 svgShape"></path><path fill="#ffffff" d="M519.8986 382.704c-2.3934 7.3437-8.7452 13.7132-16.1107 14.0061l-109.671-6.4454c-7.3655.2928-11.3968-5.4239-9.0038-12.7677l54.9807-173.3562c2.3936-7.3449 10.3047-13.5356 17.67-13.8282l102.8675-2.6761c7.3652-.2929 11.3961 5.4227 9.0037 12.7676zM528.8591 173.6437a2.73308 2.73308 0 01-2.6538 2.8101l-31.866.9071a2.73379 2.73379 0 01-2.8099-2.6547h0a2.7333 2.7333 0 012.6548-2.8101l31.8657-.9076a2.73256 2.73256 0 012.8092 2.6552z" class="colorfff svgShape"></path><g clip-path="url(#d)" fill="#000000" class="color000 svgShape"><path fill="#c3cfd1" d="M472.1031,189.9394s-17.2658.7321-23.2866,26.0211c-6.0216,25.289-48.0142,158.1575-48.0142,158.1575s-5.8939,16.1933,22.6673,17.872c0,0-23.1616,17.415-26.9585,16.8822-3.7956-.5328-37.0937-35.5587-39.4202-50.1319-2.3259-14.5726,5.4074-105.7721,7.1128-120.2172,1.7057-14.4453,70.9145-103.6236,70.9145-103.6236l47.1199-30.7994Z" opacity=".8" class="colorc3cfd1 svgShape"></path></g><g clip-path="url(#e)" opacity=".3" fill="#000000" class="color000 svgShape"><path fill="#353d3f" d="M375.9801,354.6078s134.5177,31.8166,183.8404-42.585c0,0-3.1329,147.0907-7.1246,155.1942-3.9917,8.1029-86.4609,38.2166-121.0662,31.4038-34.6056-6.8122-158.4441-37.6222-164.3682-47.4274Z" class="color353d3f svgShape"></path></g><polygon fill="#55bace" points="490.93 296.508 461.286 241.954 327.637 239.336 280.213 192.508 221.548 252.493 214.553 218.445 218.918 217.548 224.226 243.381 280.157 186.191 329.503 234.915 463.965 237.55 492.128 289.379 562.335 227.007 558.656 236.665 490.93 296.508" class="color55bace svgShape"></polygon><path fill="#e3615f" d="M250.0815,168.855a33.45679,33.45679,0,1,0-65.448,12.1707h-.0006l.0025.0062a33.2019,33.2019,0,0,0,3.2963,7.5811c4.829,10.5396,14.7939,30.3664,28.8044,48.5123,11.9318-14.2732,22.8936-36.0617,28.394-47.8438a33.4165,33.4165,0,0,0,3.6875-8.2033l.022-.0525-.0059-.0018A33.36069,33.36069,0,0,0,250.0815,168.855Zm-33.346,21.3627a18.89185,18.89185,0,1,1,18.8922-18.8918A18.89165,18.89165,0,0,1,216.7355,190.2177Z" class="colore3615f svgShape"></path><path fill="#55bace" d="M538.4796,310.8602c-10.3833-9.1751-19.2587-21.2975-26.3796-36.0308a188.00521,188.00521,0,0,1-13.602-39.8236,238.21776,238.21776,0,0,1-5.9319-45.6394l4.4565-.0345a233.57489,233.57489,0,0,0,5.8418,44.7757c5.1506,22.4957,16.0226,53.4929,38.5659,73.413Z" class="color55bace svgShape"></path><path fill="#fe8c18" d="M217.1619,372.4579l49.0011-36.9805s6.3029-6.7702,17.981-9.8702l37.1891-5.5195S230.1095,385.5737,217.1619,372.4579Z" class="colorfe8c18 svgShape"></path><path fill="#fe8c18" d="M607.6484,483.4298v-48.896c-7.9319-8.3483-7.9319-23.8522-7.9319-23.8522V390.4077c-6.6106-15.5042-34.3719-54.8594-34.3719-54.8594,6.6091-4.7702,9.2539-14.311,9.2539-14.311-167.8922-17.8889-259.1089,0-259.1089,0q-4.7934,1.0482-9.2809,2.1471l-89.0468,49.0735-72.2084,15.5647c-44.9474,16.6962-48.9132,44.1258-48.9132,44.1258v25.0444c-14.5419-2.3851-2.6445,33.9891-2.6445,33.9891l25.1178,1.7887H574.5985C610.2923,491.7778,607.6484,483.4298,607.6484,483.4298Z" class="colorfe8c18 svgShape"></path><path fill="#af4612" d="M179.3251,418.2349s44.7157-.2754,97.3357,15.3927c52.62,15.6677,166.2497,17.9033,208.6141-13.2233,0,0,37.0149-20.0053,71.2598,1.1329l-85.0513,57.5197H230.7923Z" opacity=".3" class="coloraf4612 svgShape"></path><path fill="#3f3029" d="M361.1067 331.3742c-3.5884-7.0951-10.1348-4.7702-10.1348-4.7702H321.8886c-23.8902 0-39.7347 7.4601-40.7211 7.9351l-.0056.0039-.0442.0208c-23.1748 11.028-39.692 27.4183-48.3177 37.3935l.0015-.0006-.0015.0006c-1.4122 1.6344-2.6122 3.0949-3.5958 4.3331-.1119 2.1816 3.1919 4.37 16.8902 4.37H363.7509C365.9544 362.3654 363.8052 336.71 361.1067 331.3742zM366.8357 326.4054s6.61 39.5377 5.2877 54.255l131.3177 1.5979s2.6441-.7952 2.2029-7.9512c0 0-12.123-38.8297-56.8452-47.9017z" class="color3f3029 svgShape"></path><g clip-path="url(#f)" fill="#000000" class="color000 svgShape"><path fill="#d35720" d="M96.0403,457.1928h12.5583s14.5416-37.1692,70.7265-38.9579c0,0,51.5574,4.1745,56.8451,56.6485,0,0-.6608,4.1735,9.2536,4.1735H471.4834s0-54.8588,68.7438-60.822c0,0,46.9302,2.9813,56.8454,42.3371,0,0,6.61,4.7702,10.5758-1.1929,0,0,19.1692,43.5299,15.8636,48.2999-3.3053,4.7706-77.3362,31.0073-86.5901,31.0073-9.2542,0-113.6906-6.559-116.3351-10.137-2.6436-3.5774-223.4148,21.4668-249.8544,26.2373-26.44,4.7703-76.0143,0-88.5735-8.9447-12.5586-8.9444-15.8636-8.9444-15.8636-8.9444V455.8017S82.1589,435.9249,96.0403,457.1928Z" class="colord35720 svgShape"></path></g><g clip-path="url(#f)" fill="#000000" class="color000 svgShape"><path fill="#81302c" d="M222.4497,483.4657c0,25.1768-22.6246,45.5866-50.5328,45.5866-27.9088,0-50.5304-20.4098-50.5304-45.5866,0-25.1756,22.6216-45.586,50.5304-45.586C199.8251,437.8797,222.4497,458.2901,222.4497,483.4657Z" class="color81302c svgShape"></path></g><g clip-path="url(#f)" fill="#000000" class="color000 svgShape"><path fill="#81302c" d="M588.0253,483.4657c0,25.1768-22.6246,45.5866-50.5325,45.5866-27.9091,0-50.5313-20.4098-50.5313-45.5866,0-25.1756,22.6222-45.586,50.5313-45.586C565.4007,437.8797,588.0253,458.2901,588.0253,483.4657Z" class="color81302c svgShape"></path></g><path fill="#3a3a3e" d="M217.1619,489.8929c0,24.4003-20.2566,44.1807-45.245,44.1807-24.9877,0-45.2426-19.7804-45.2426-44.1807,0-24.3981,20.2549-44.1794,45.2426-44.1794C196.9053,445.7135,217.1619,465.4948,217.1619,489.8929Z" class="color3a3a3e svgShape"></path><path fill="#e9eaec" d="M207.2081,489.8929c0,19.0324-15.8001,34.4616-35.2912,34.4616-19.4893,0-35.2903-15.4292-35.2903-34.4616,0-19.0314,15.801-34.46,35.2903-34.46C191.408,455.4329,207.2081,470.8615,207.2081,489.8929Z" class="colore9eaec svgShape"></path><path fill="#636368" d="M200.5859,489.8929c0,15.4612-12.8363,27.994-28.669,27.994-15.8318,0-28.6672-12.5328-28.6672-27.994,0-15.4603,12.8354-27.9936,28.6672-27.9936C187.7496,461.8993,200.5859,474.4326,200.5859,489.8929Z" class="color636368 svgShape"></path><path fill="#e9eaec" d="M188.3909,489.8929a16.4783,16.4783,0,1,1-16.474-16.0867A16.28473,16.28473,0,0,1,188.3909,489.8929Z" class="colore9eaec svgShape"></path><path fill="#3a3a3e" d="M584.0082,489.8929c0,24.4003-20.2561,44.1807-45.2442,44.1807s-45.243-19.7804-45.243-44.1807c0-24.3981,20.255-44.1794,45.243-44.1794S584.0082,465.4948,584.0082,489.8929Z" class="color3a3a3e svgShape"></path><path fill="#e9eaec" d="M574.0552,489.8929c0,19.0324-15.7998,34.4616-35.2912,34.4616-19.4893,0-35.2903-15.4292-35.2903-34.4616,0-19.0314,15.801-34.46,35.2903-34.46C558.2554,455.4329,574.0552,470.8615,574.0552,489.8929Z" class="colore9eaec svgShape"></path><path fill="#636368" d="M567.4327,489.8929c0,15.4612-12.8363,27.994-28.6687,27.994-15.8321,0-28.6675-12.5328-28.6675-27.994,0-15.4603,12.8354-27.9936,28.6675-27.9936C554.5964,461.8993,567.4327,474.4326,567.4327,489.8929Z" class="color636368 svgShape"></path><path fill="#e9eaec" d="M555.2382,489.8929a16.47887,16.47887,0,1,1-16.4742-16.0867A16.2851,16.2851,0,0,1,555.2382,489.8929Z" class="colore9eaec svgShape"></path><path fill="#281d18" d="M324.971,326.604s16.8544,2.5343,18.8377,20.4228v15.2048s4.9564,18.4288-9.4188,18.4288h29.0185s3.4077-31.8307-2.6441-49.2862c0,0-.3502-4.9688-10.1349-4.7702Z" class="color281d18 svgShape"></path><path fill="#281d18" d="M239.2842 364.9176s101.7819 17.5285 124.4667-11.3339v27.0767H246.0944S216.4163 384.2544 239.2842 364.9176zM371.7733 364.9176s120.9537 11.6194 116.1662-17.919c0 0 27.3919 26.8091 15.5016 35.2597l-131.3177-1.5979z" class="color281d18 svgShape"></path><path fill="#fcb61a" d="M269.2475 340.9785s42.7297-15.1206 103.2074-14.3745l125.9124-.1986s67.199.3463 76.2312-5.1681c0 0-179.2327-19.6781-277.8155 2.494zM104.9087 414.6967s20.8635-4.6637 38.341-11.5678c17.4774-6.9037 89.2138-23.8376 89.2138-23.8376s-13.5105-.5038-21.5638-5.4836l-65.9462 14.2149S121.1375 395.0053 104.9087 414.6967zM239.5233 380.4613s-.9189 8.0115 11.6396 7.1177c12.5589-.8952 104.4367.0697 104.4367.0697s10.2248-.7533 10.8865-6.9711zM375.5186 380.6604s-.7492 6.9584 6.3002 6.9883c7.0504.0294 1.7629 0 1.7629 0l102.6745 1.6193s17.6234.9925 20.2029-6.9836z" class="colorfcb61a svgShape"></path><path fill="#fffefd" d="M104.9087,426.6363s5.7192-17.0724,26.4726-19.2698c20.7531-2.1972-.3988,15.6915-7.6696,19.2698C116.4412,430.214,97.4527,440.3972,104.9087,426.6363Z" class="colorfffefd svgShape"></path><path fill="#fffefd" d="M100.9156,420.4043s5.8097,1.8323,12.6502-5.7076l-6.6743,11.7411s-7.1958,2.583-10.1613,1.7884Z" class="colorfffefd svgShape"></path><path fill="#af4612" d="M96.0403,449.2953s10.8868,4.0916,28.423-12.2654c0,0-10.8975,11.655-15.8647,20.1629H96.0403Z" opacity=".7" class="coloraf4612 svgShape"></path><path fill="#af4612" d="M580.65,434.2635s22.4611,25.3402,26.9984,9.7509l.0437,15.4653s-3.2596,7.002-10.6195,1.0923C597.0726,460.572,595.6032,451.084,580.65,434.2635Z" class="coloraf4612 svgShape"></path><path fill="#fcb61a" d="M204.8802,385.9951s28.4777-7.7798,37.471,0l-2.8279-5.5338-7.0598-1.17S200.4028,379.6634,204.8802,385.9951Z" class="colorfcb61a svgShape"></path><path fill="#fcb61a" d="M251.1629,387.579s-40.451-3.5169-66.3652,3.5029c0,0,16.047-13.2434,22.4104-11.7906C213.5712,380.7438,241.8117,378.0052,251.1629,387.579Z" class="colorfcb61a svgShape"></path><path fill="#3f3029" d="M477.6878,327.082s31.3695,18.8448,38.6086,47.1121c0,0,.9655,7.6479,10.1351,8.0642h57.5767s-17.4977-44.1522-39.3772-51.8743C544.631,330.384,499.2859,325.942,477.6878,327.082Z" class="color3f3029 svgShape"></path><path fill="#281d18" d="M503.4737,349.9158s53.0295,27.9773,70.5815,11.9449l9.953,20.3976H526.4315s-7.6307,1.3546-11.125-11.4244.9899,3.3602.9899,3.3602Z" class="color281d18 svgShape"></path><path fill="#fcb61a" d="M260.1319,346.9986s6.1987-4.4949,6.0293-11.52c0,0,7.5524-8.8803,36.8357-13.0675l-18.7315,13.0663S262.6381,341.734,260.1319,346.9986Z" class="colorfcb61a svgShape"></path><path fill="#81302c" d="M334.2035 394.2522h15.4441a3.2177 3.2177 0 013.2177 3.2177v2.4416a3.2174 3.2174 0 01-3.2174 3.2174H334.2033a3.2175 3.2175 0 01-3.2175-3.2175v-2.4415A3.2177 3.2177 0 01334.2035 394.2522zM400.485 394.2522h15.4438a3.2177 3.2177 0 013.2177 3.2177v2.4416a3.2174 3.2174 0 01-3.2174 3.2174H400.4848a3.2175 3.2175 0 01-3.2175-3.2175v-2.4415A3.2177 3.2177 0 01400.485 394.2522z" class="color81302c svgShape"></path><path fill="#81302c" d="M445.5514,463.5892H359.9438l-90.6708-.1641c-12.5265,1.3427-19.3186-5.9151-22.8103-12.242a42.713,42.713,0,0,1-4.588-14.0737l-13.142-60.7169.943-.2041,13.1523,60.7638.003.0249a41.63587,41.63587,0,0,0,4.4899,13.7633c4.8773,8.8197,12.2354,12.7642,21.8747,11.7223l.0528-.0029,90.6963.1641h85.564c.5923-.0564,13.6965-1.3831,13.6965-7.9311,0-3.5625,3.3421-13.2048,10.5162-22.5869,6.1151-7.9978,16.749-18.0884,32.6806-20.7427l.0441-.0074.0449.0009c.0872-.0024,8.5244.0952,11.933-5.98,3.5252-6.2836.7086-16.6876-8.372-30.923l.814-.519c9.2894,14.563,12.1146,25.3029,8.3966,31.9203-3.5985,6.4049-11.964,6.4738-12.7447,6.4676-15.5968,2.6133-26.0257,12.5173-32.03,20.3697-7.0382,9.2049-10.3174,18.5694-10.3174,22.0005,0,7.5462-14.0025,8.843-14.5983,8.8946Z" class="color81302c svgShape"></path><path fill="#81302c" d="M372.2495 463.1844l-.9525-.1558c7.8601-48.0829.4318-81.9254.3558-82.262l.9413-.2127C372.6703 380.8919 380.142 414.903 372.2495 463.1844zM607.2505 434.8065c-15.8784-23.1715-39.8142-30.5456-57.0982-32.6517a113.74807 113.74807 0 00-34.0749.9925l-.2059-.9433a114.85322 114.85322 0 0134.3977-1.0074 90.71567 90.71567 0 0130.223 8.8838 73.28945 73.28945 0 0127.5545 24.1807zM599.7165 394.2522s-26.7711-4.2281-11.3268 12.928l11.5867 7.5165z" class="color81302c svgShape"></path><path fill="#28313d" d="M559.0844,307.0952s17.053,16.3708,5.1838,26.0756-30.2787,22.7781-30.2787,22.7781l2.4601,20.6276s12.6566,1.5044,12.6566,18.6149,6.1228,98.8559,6.1228,98.8559L492.5458,495l22.6044-179.0495,27.2915-8.8553A134.52049,134.52049,0,0,0,559.0844,307.0952Z" opacity=".4" class="color28313d svgShape"></path><polygon fill="#fdaa30" points="518.97 449.379 537.841 527.504 548.649 527.504 545.285 457.523 518.97 449.379" class="colorfdaa30 svgShape"></polygon><path fill="#e0869b" d="M518.9698,435.3456s22.4559,28.2254,28.0015,44.9048l-1.6859-49.7433Z" class="colore0869b svgShape"></path><path fill="#fdaa30" d="M490.9191,446.4438l-6.4892,81.0597,14.544-5.6985c12.0032-53.6408,7.2926-53.3826,16.4512-97.8981Z" class="colorfdaa30 svgShape"></path><path fill="#e0869b" d="M490.9191,420.972s18.0367,44.4615,16.3455,64.4101c0,0,5.6052-51.7578,11.7052-61.8843Z" class="colore0869b svgShape"></path><path fill="#315460" d="M495.1764,377.3591,486.1708,495.137s53.1602-18.5985,60.8005-14.8866l-8.881-103.3592-19.1205-30.4844-8.0828-7.1761-8.5156-2.3099Z" class="color315460 svgShape"></path><path fill="#b8e842" d="M488.6769,298.4834a115.59077,115.59077,0,0,0-15.3822,28.0422l-3.2244,8.0287,9.3032,8.1941,12.5934-12.383Z" class="colorb8e842 svgShape"></path><path fill="#b8e842" d="M503.8487,287.0735l-10.1772,7.1467s-7.8393,4.6537-9.273,12.5337c-1.4337,7.8813,3.9131,19.3315,6.8185,35.9945,0,0,.7499,6.7656,1.7058,10.9312,0,0,33.0283,8.3059,40.5508-13.0416,0,0,10.3883-43.6869,0-49.8897-10.3889-6.2027-14.5045-4.8084-14.5045-4.8084Z" class="colorb8e842 svgShape"></path><path fill="#315460" d="M521.8596,285.9399s-14.5654,39.7049-7.5657,71.0931a14.84409,14.84409,0,0,0-5.8947-1.5056c-2.8743.0041-5.2268,1.5579-5.4833,1.5429-.5183-.0311-13.6923-56.4349.9328-69.9968C518.4735,273.5107,521.8596,285.9399,521.8596,285.9399Z" class="color315460 svgShape"></path><path fill="#3f5b63" d="M512.8698,253.7477s-2.3208,4.4503-2.3208,6.8776c0,0-12.3742,2.0211-18.0084-8.1643-5.6344-10.1849-4.5598-13.3082,6.5443-15.507,11.1059-2.1997,20.7766-11.7717,29.0161,0,8.2382,11.7696,9.3127,25.8838,19.6999,24.5582,10.3883-1.3254.7164,23.2007-15.7594,18.8181,0,0-9.9885.4092-21.2761-10.463h0Z" class="color3f5b63 svgShape"></path><path fill="#21343a" d="M520.0512,255.7036s18.9651,25.1518,27.3318,19.859c0,0-14.6264,16.9681-36.496-5.2391Z" class="color21343a svgShape"></path><path fill="#fdaa30" d="M513.289,262.5543c11.5879,29.9764,3.3484,32.358-6.0517,37.4589-9.3987,5.1003-5.2766-7.2973-5.2766-7.2973,4.4342-6.7795,0-16.7802,0-16.7802Z" class="colorfdaa30 svgShape"></path><path fill="#fdaa30" d="M491.1019,258.5052s-2.6815,25.7895,12.466,17.9117c0,0,6.3176-3.9382,9.459-10.0126,0,0,7.2022.9454,7.3688-6.6204,0,0,.6063-12.2252-7.5259-6.0362,0,0,6.539-16.2084-12.7663-9.1716C500.1035,244.5761,491.0416,249.6132,491.1019,258.5052Z" class="colorfdaa30 svgShape"></path><path fill="#3f5b63" d="M520.4066,242.8054s-5.202-3.0364-7.5368-2.5569c-2.3344.4802-2.679-.1213-3.396.2994-.7176.4193-15.4037,4.9911-15.4037,4.9911,7.1646,16.1584,18.7997,8.2087,18.7997,8.2087Z" class="color3f5b63 svgShape"></path><path fill="#21343a" d="M495.3773,248.1436s-2.2773-7.9427,0-10.3083c0,0-5.0832,8.3335-2.8367,14.6257Z" class="color21343a svgShape"></path><path fill="#ce751d" d="M502.3714,276.9862s8.1186-3.2899,10.6555-10.5819l1.7875.2594,1.5566,4.6706s-5.5198,11.0182-12.657,11.0401Z" class="colorce751d svgShape"></path><path fill="#21c15a" d="M487.4332,300.0132s-6.6182,10.5068,1.5289,33.0666l-3.661,3.841S473.272,316.1967,487.4332,300.0132Z" class="color21c15a svgShape"></path><path fill="#b8e842" d="M484.2247,337.9786,466.489,355.27c-12.5381,6.964-16.1201-50.2949-16.1201-50.2949l9.9406-2.0593,9.7608,31.6385Z" class="colorb8e842 svgShape"></path><path fill="#21c15a" d="M470.0703,334.5543l-2.7738,9.9045s-3.9728-4.0956,1.3712-14.4522Z" class="color21c15a svgShape"></path><path fill="#b8e842" d="M533.4736,290.7483s-7.8772,15.3119,4.1712,24.5426l21.0394,10.0488V315.2909S548.2085,299.8444,533.4736,290.7483Z" class="colorb8e842 svgShape"></path><polygon fill="#21c15a" points="550.241 321.307 558.684 315.291 554.07 309.292 550.241 321.307" class="color21c15a svgShape"></polygon><path fill="#21c15a" d="M526.291,304.9751s6.6833,8.0843,11.3538,10.3158l-1.2528,10.0488S528.3843,315.6234,526.291,304.9751Z" class="color21c15a svgShape"></path><path fill="#b8e842" d="M514.2939,354.8882l4.6759,18.735s9.5739,5.3111,19.1205,3.268c0,0-5.5228-26.3253-5.0694-31.2882Z" class="colorb8e842 svgShape"></path><path fill="#b8e842" d="M558.6842,315.2909s-20.6455,13.049-29.5494,21.6299l1.2817,9.486S575.0312,333.9237,558.6842,315.2909Z" class="colorb8e842 svgShape"></path><path fill="#fdaa30" d="M530.4165,346.4068c1.5516,19.1138-9.7627,6.9584-9.7627,6.9584.3955-8.4073,8.481-16.4444,8.481-16.4444Z" class="colorfdaa30 svgShape"></path><polygon fill="#b8e842" points="502.371 354.888 507.238 377.361 495.176 377.359 492.923 353.68 502.371 354.888" class="colorb8e842 svgShape"></polygon><polygon fill="#32435e" points="484.43 526.377 470.897 543.898 492.604 543.898 496.11 535.9 498.974 543.898 504.626 543.898 498.974 521.805 484.43 526.377" class="color32435e svgShape"></polygon><polygon fill="#32435e" points="549.345 521.805 553.534 543.898 543.266 543.898 542.795 537.804 535.979 543.898 521.67 543.898 537.841 526.377 549.345 521.805" class="color32435e svgShape"></polygon><path fill="#315460" d="M538.0903,376.8912s8.7,7.8815,8.71,23.6829c.0118,15.8007.171,79.6763.171,79.6763L520.6538,420.972Z" class="color315460 svgShape"></path><path fill="#ce751d" d="M504.5063 496.9971s-17.8178 2.8354-18.3355 9.3709V495.137l20.3647-6.6702zM527.0607 482.1142l2.0743 9.9414s9.1823-8.8379 18.248-6.6735l-.4117-5.1317S541.0748 477.4526 527.0607 482.1142z" class="colorce751d svgShape"></path><polygon fill="#ce751d" points="529.135 336.921 524.544 342.748 530.416 346.407 529.135 336.921" class="colorce751d svgShape"></polygon><path fill="#fdaa30" d="M460.3095,302.9158s-6.96-21.3435-16.7482-17.1101c0,0-6.9407,8.8862,6.8076,19.1694Z" class="colorfdaa30 svgShape"></path><path fill="#21343a" d="M453.3222,296.0112s-.0834,2.0926-1.8109,2.262c-1.1263.1104-11.7857,1.2291-11.7857,1.2291s-2.8855.5038-3.6936-3.1578c-.9459-4.2853-5.7221-21.5117-5.7221-21.5117s-.195-2.1296.9204-2.5481Z" class="color21343a svgShape"></path><path fill="#3f5b63" d="M437.0307,296.522a2.33533,2.33533,0,0,0,1.9393,1.7248l13.1796-1.0939a1.09358,1.09358,0,0,0,1.0861-1.5749l-6.7653-21.2967a2.54425,2.54425,0,0,0-2.1265-1.7024l-12.3655-.4917a1.09365,1.09365,0,0,0-1.0861,1.5746Z" class="color3f5b63 svgShape"></path><path fill="#ffffff" d="M438.1258 293.2639a1.81523 1.81523 0 001.5152 1.3173l10.3143-.6062a.83646.83646 0 00.847-1.2008l-5.1714-16.304a1.9818 1.9818 0 00-1.6613-1.3003l-9.6748-.2519a.83655.83655 0 00-.847 1.2006zM437.2829 273.602a.2574.2574 0 00.2497.2642l2.9971.0854a.25673.25673 0 00.2639-.2497h0a.25642.25642 0 00-.2496-.2643l-2.9968-.0853a.25721.25721 0 00-.2643.2497z" class="colorfff svgShape"></path><g clip-path="url(#g)" fill="#000000" class="color000 svgShape"><path fill="#c3cfd1" d="M442.621,275.1346s1.6237.0688,2.1902,2.4472c.566,2.3786,4.5154,14.8745,4.5154,14.8745s.5542,1.5231-2.1317,1.6809a12.83179,12.83179,0,0,0,2.5353,1.5876c.357-.0501,3.4881-3.3441,3.7073-4.7147.2186-1.3706-.5084-9.9477-.6691-11.3062-.1601-1.3588-6.6692-9.7456-6.6692-9.7456l-4.4315-2.8967Z" opacity=".8" class="colorc3cfd1 svgShape"></path></g><g clip-path="url(#h)" opacity=".3" fill="#000000" class="color000 svgShape"><path fill="#353d3f" d="M451.6611,290.6214s-12.6513,2.9922-17.2898-4.0051c0,0,.2942,13.8334.6697,14.5959.3757.7621,8.1316,3.594,11.3865,2.9532,3.2545-.6405,14.9012-3.5381,15.4584-4.4606Z" class="color353d3f svgShape"></path></g><path fill="#fdaa30" d="M452.5946,288.7207l-10.4692-5.5853s.1785,10.7698,11.1103,12.4426l5.2287,2.6688Z" class="colorfdaa30 svgShape"></path><path fill="#b8e842" d="M473.6464,215.0662a8.24027,8.24027,0,1,0-16.1196,2.9976h-.0003l.0007.0015a8.19329,8.19329,0,0,0,.8117,1.8673,63.89243,63.89243,0,0,0,7.0947,11.9486c2.9386-3.5155,5.6386-8.8821,6.9934-11.7841a8.222,8.222,0,0,0,.9084-2.0204l.0053-.0129-.0013-.0004A8.21613,8.21613,0,0,0,473.6464,215.0662Zm-8.213,5.2616a4.6531,4.6531,0,1,1,4.6532-4.6531A4.653,4.653,0,0,1,465.4334,220.3278Z" class="colorb8e842 svgShape"></path></svg></g></svg>